<mxfile host="app.diagrams.net" modified="2020-11-27T03:02:08.447Z" agent="5.0 (X11; Linux x86_64) AppleWebKit/537.36 (KHTML, like Gecko) Chrome/86.0.4240.193 Safari/537.36" etag="0Hx2jUBnBNWRq0jRlg4j" version="13.10.4" type="github">
  <diagram id="vTd5O_wG8W-i1f21Y9Ud" name="Page-1">
    <mxGraphModel dx="1355" dy="745" grid="1" gridSize="10" guides="1" tooltips="1" connect="1" arrows="1" fold="1" page="1" pageScale="1" pageWidth="827" pageHeight="1169" math="0" shadow="0">
      <root>
        <mxCell id="0" />
        <mxCell id="1" parent="0" />
      </root>
    </mxGraphModel>
  </diagram>
</mxfile>
